<?xml version="1.0" standalone="no"?>
<!DOCTYPE svg PUBLIC "-//W3C//DTD SVG 20010904//EN"
 "http://www.w3.org/TR/2001/REC-SVG-20010904/DTD/svg10.dtd">
<svg version="1.0" xmlns="http://www.w3.org/2000/svg"
 width="700.000000pt" height="700.000000pt" viewBox="0 0 700.000000 700.000000"
 preserveAspectRatio="xMidYMid meet">
<metadata>
Created by potrace 1.11, written by Peter Selinger 2001-2013
</metadata>
<g transform="translate(0.000000,700.000000) scale(0.100000,-0.100000)"
fill="#000000" stroke="none">
<path d="M3880 6935 c0 -5 -19 -30 -41 -55 -143 -159 -208 -396 -152 -552 21
-58 93 -138 125 -138 32 0 100 44 128 82 99 133 108 373 19 553 -30 62 -78
128 -79 110z"/>
<path d="M3001 6845 c-109 -220 -100 -479 20 -597 28 -28 82 -58 104 -58 30 0
87 52 112 102 59 117 46 297 -33 454 -36 73 -126 184 -148 184 -6 0 -31 -38
-55 -85z"/>
<path d="M2115 6708 c-23 -106 -28 -263 -11 -337 23 -99 83 -213 138 -262 43
-38 82 -56 139 -64 44 -7 48 -5 72 27 38 51 50 102 44 182 -13 168 -143 358
-304 444 -34 17 -63 32 -67 32 -3 0 -8 -10 -11 -22z"/>
<path d="M4750 6691 c-233 -141 -369 -415 -286 -578 33 -67 46 -75 97 -68 96
14 177 87 235 209 44 93 63 180 60 281 -3 79 -24 195 -35 195 -3 0 -35 -18
-71 -39z"/>
<path d="M1355 6198 c7 -218 112 -424 256 -503 43 -23 66 -29 116 -28 72 0 84
9 102 80 46 178 -146 433 -389 517 -85 30 -88 28 -85 -66z"/>
<path d="M5515 6261 c-190 -68 -346 -210 -398 -361 -31 -92 0 -228 52 -232 94
-5 143 9 211 63 125 99 223 311 214 465 -1 21 -2 49 -3 62 -1 26 -10 26 -76 3z"/>
<path d="M3153 6117 c-28 -12 -34 -32 -78 -262 -31 -166 -52 -276 -60 -310 -1
-5 -5 -31 -9 -57 -5 -26 -12 -45 -17 -42 -5 3 -101 115 -215 249 -113 135
-209 246 -213 246 -49 10 -74 -2 -84 -41 -7 -28 -9 -26 183 -261 74 -91 151
-185 170 -209 19 -24 50 -61 68 -83 28 -33 374 -630 438 -756 16 -31 21 -56
19 -90 -2 -25 -6 -113 -10 -196 -3 -82 -8 -213 -11 -290 -3 -77 -7 -142 -9
-143 -3 -4 -113 53 -440 225 -66 35 -131 68 -145 74 -20 7 -78 98 -244 379
-208 354 -237 411 -316 625 -66 181 -163 422 -174 433 -31 31 -96 10 -96 -32
0 -7 27 -92 61 -187 33 -96 82 -236 109 -312 27 -76 43 -137 37 -134 -7 2 -43
14 -82 27 -38 12 -79 26 -90 31 -11 4 -101 35 -200 69 -99 33 -190 65 -203 70
-68 29 -132 -14 -102 -70 12 -22 34 -31 390 -160 168 -61 312 -119 321 -128 9
-9 47 -75 84 -147 37 -71 81 -153 96 -182 16 -28 46 -85 67 -125 22 -40 52
-97 67 -126 15 -29 25 -55 21 -59 -4 -4 -44 -8 -89 -9 -103 -2 -456 -14 -559
-18 l-76 -4 -74 60 c-40 33 -93 77 -118 98 -341 288 -385 321 -415 315 -34 -6
-45 -20 -45 -56 0 -20 16 -40 68 -85 37 -32 69 -61 72 -64 3 -3 34 -30 70 -60
36 -30 67 -57 70 -60 3 -3 55 -49 117 -102 l112 -96 -47 -11 c-26 -6 -63 -13
-82 -16 -19 -4 -120 -22 -225 -41 -104 -19 -206 -37 -225 -40 -86 -12 -116
-46 -91 -101 11 -24 15 -25 74 -20 34 3 71 8 82 10 11 2 42 8 68 11 27 4 56 9
65 11 10 1 37 6 62 9 25 3 56 8 69 11 12 2 98 16 190 30 162 25 176 25 582 22
l417 -4 38 -24 c214 -131 539 -342 539 -350 0 -6 -48 -40 -107 -77 -59 -37
-188 -118 -287 -180 l-179 -113 -421 -5 -421 -4 -227 35 c-126 20 -239 38
-253 40 -136 22 -224 35 -244 35 -31 0 -56 -24 -56 -54 0 -48 2 -49 425 -127
61 -12 143 -28 184 -36 l75 -16 -24 -19 c-29 -23 -128 -108 -144 -123 -6 -6
-81 -71 -166 -145 -85 -74 -160 -142 -167 -150 -29 -35 -1 -90 45 -90 16 0
171 118 268 205 72 64 306 255 323 264 9 4 39 7 66 6 28 -2 145 -6 260 -10
181 -6 302 -10 393 -14 23 -1 23 -3 -21 -83 -25 -46 -69 -128 -98 -183 -29
-55 -75 -140 -101 -190 -27 -49 -61 -113 -75 -142 -20 -40 -36 -56 -62 -67
-20 -7 -166 -62 -326 -121 -159 -59 -304 -114 -322 -122 -50 -23 -51 -77 -3
-103 16 -8 46 -2 143 30 67 23 131 45 142 50 11 5 92 33 180 63 88 31 169 59
179 63 16 6 18 4 12 -12 -4 -10 -55 -151 -113 -311 -73 -204 -103 -300 -99
-317 5 -22 25 -35 63 -42 22 -4 50 42 91 151 140 377 214 559 263 642 30 51
114 195 188 320 74 126 146 249 160 275 24 43 36 53 136 104 61 31 142 74 180
94 260 138 327 172 330 169 2 -2 6 -92 11 -199 4 -107 8 -220 9 -250 1 -30 4
-98 5 -150 l2 -95 -206 -365 c-159 -281 -226 -389 -292 -473 -48 -59 -91 -113
-98 -120 -6 -7 -67 -82 -136 -167 -68 -85 -127 -157 -130 -160 -4 -3 -9 -16
-13 -29 -8 -32 19 -71 50 -71 31 0 31 0 308 324 l160 188 7 -34 c4 -18 9 -46
12 -63 3 -16 17 -86 31 -155 26 -127 27 -134 40 -205 4 -22 9 -49 12 -60 2
-11 9 -46 15 -79 15 -85 48 -110 102 -80 25 15 25 49 -5 199 -5 28 -11 64 -13
80 -2 17 -16 95 -30 175 -14 80 -28 159 -30 175 -3 17 -10 54 -16 83 l-10 53
191 307 c105 169 194 310 198 314 3 4 72 -97 151 -224 209 -333 248 -400 244
-412 -4 -12 -12 -54 -20 -106 -2 -19 -9 -57 -14 -85 -6 -27 -12 -67 -16 -89
-3 -21 -7 -48 -10 -60 -27 -143 -63 -377 -59 -389 4 -8 17 -20 31 -27 35 -19
71 2 83 49 8 33 55 275 67 346 13 76 54 279 58 282 2 2 10 -7 19 -19 8 -13 28
-38 45 -56 16 -18 47 -54 68 -80 22 -25 57 -67 79 -93 104 -120 142 -165 160
-188 51 -68 97 -87 129 -55 29 28 18 60 -46 141 -34 43 -67 83 -72 90 -6 7
-16 18 -21 25 -6 7 -76 94 -156 193 -141 174 -198 261 -377 585 -13 25 -40 70
-58 101 -19 31 -34 59 -34 61 0 3 -23 43 -50 89 l-51 84 6 110 c2 61 7 180 11
265 3 85 7 184 9 220 2 36 4 73 4 83 1 15 27 5 149 -59 325 -170 448 -236 459
-247 10 -11 65 -102 355 -596 67 -114 98 -185 205 -465 69 -182 133 -339 142
-349 37 -39 92 -19 94 35 0 18 -124 383 -198 582 -8 22 -13 41 -11 43 1 2 86
-25 187 -60 399 -138 437 -150 464 -143 45 12 53 76 12 98 -12 6 -171 66 -355
133 -183 68 -335 125 -336 127 -4 4 -72 131 -136 253 -29 55 -65 123 -80 150
-68 126 -130 243 -130 247 0 1 30 3 68 4 37 0 162 4 277 8 116 4 251 9 302 11
l92 2 68 -57 c315 -264 510 -420 525 -420 24 0 58 35 58 61 0 21 -26 49 -113
124 -25 22 -125 108 -221 190 -95 83 -171 153 -167 156 3 3 87 20 186 38 177
31 205 36 255 46 14 2 41 7 60 10 107 16 141 27 156 50 23 35 9 74 -30 83 -17
3 -34 5 -38 4 -4 -1 -64 -11 -135 -22 -70 -11 -137 -22 -148 -24 -11 -2 -40
-7 -65 -10 -25 -3 -112 -17 -195 -30 -146 -24 -163 -25 -577 -21 l-426 4 -114
74 c-62 40 -191 122 -285 181 -95 60 -173 111 -173 115 0 3 130 88 289 188
l289 182 449 3 c246 1 462 -1 478 -5 33 -8 159 -28 323 -53 20 -3 91 -14 157
-26 153 -26 184 -26 201 -3 34 46 5 88 -66 100 -36 6 -187 34 -350 65 -52 10
-128 24 -167 31 -40 7 -73 16 -73 20 0 6 57 58 175 160 16 14 55 48 85 75 31
27 87 76 125 109 102 90 115 104 115 129 0 27 -29 56 -55 56 -15 0 -79 -40
-95 -60 -3 -3 -77 -66 -165 -139 -175 -145 -170 -141 -267 -223 l-67 -56 -98
3 c-54 2 -199 7 -323 11 -213 6 -311 10 -318 13 -2 0 5 16 16 34 11 17 50 91
87 162 37 72 75 144 85 160 9 17 39 71 65 120 57 107 89 169 91 173 1 1 136
52 300 112 164 61 323 120 352 132 63 25 81 55 56 93 -28 43 3 50 -443 -104
-129 -45 -235 -80 -237 -79 -1 2 26 82 61 178 139 386 155 431 155 449 0 47
-78 69 -104 29 -8 -13 -44 -102 -80 -198 -37 -96 -70 -184 -76 -195 -5 -11
-30 -76 -55 -145 -47 -127 -64 -159 -285 -535 -68 -115 -140 -239 -161 -274
-41 -71 -16 -55 -389 -248 -102 -52 -200 -104 -218 -115 -18 -11 -35 -18 -38
-15 -6 5 -9 74 -19 377 -4 107 -8 220 -10 250 -3 47 1 63 27 110 17 30 42 75
56 100 235 421 347 607 423 701 46 57 86 106 89 109 3 3 32 39 65 80 33 41 62
77 65 80 20 19 134 165 145 187 22 42 -19 93 -64 78 -9 -3 -114 -118 -231
-255 -179 -209 -216 -247 -222 -231 -6 17 -17 70 -34 171 -3 14 -7 32 -9 40
-4 13 -57 287 -70 361 -14 76 -47 107 -93 86 -32 -15 -36 -43 -18 -138 24
-133 25 -139 41 -229 7 -47 21 -125 30 -175 9 -49 18 -101 20 -115 3 -14 8
-45 13 -70 l9 -45 -192 -309 c-106 -169 -196 -308 -200 -309 -7 -2 -207 311
-355 554 -39 64 -40 66 -30 120 5 30 12 70 15 89 3 19 8 42 10 50 2 8 6 31 9
50 3 19 23 136 44 258 40 236 40 257 -3 272 -11 4 -30 3 -42 -3z"/>
<path d="M717 5622 c-26 -3 -28 -6 -22 -30 24 -97 116 -258 184 -323 40 -38
115 -90 159 -110 106 -49 254 -24 265 45 18 114 -55 232 -199 322 -117 73
-268 110 -387 96z"/>
<path d="M6035 5599 c-220 -45 -391 -190 -396 -336 -3 -85 -2 -89 43 -109 113
-51 261 -1 399 135 83 82 135 171 162 274 l15 57 -71 -3 c-39 -1 -108 -9 -152
-18z"/>
<path d="M445 4943 c-94 -17 -136 -27 -141 -35 -3 -5 20 -46 50 -92 167 -250
444 -362 601 -241 40 30 41 40 19 115 -29 100 -153 193 -310 235 -57 16 -178
26 -219 18z"/>
<path d="M6398 4935 c-2 -2 -20 -6 -41 -9 -53 -8 -141 -41 -191 -70 -89 -52
-145 -135 -149 -218 -2 -38 1 -44 38 -69 91 -64 231 -51 383 33 77 43 200 168
235 240 15 31 27 59 27 61 0 4 -45 16 -95 24 -28 5 -203 11 -207 8z"/>
<path d="M369 4046 c-2 -2 -22 -6 -44 -9 -66 -9 -141 -37 -243 -90 l-54 -28
45 -44 c65 -63 144 -113 223 -140 197 -68 388 -42 463 63 27 38 26 57 -2 107
-29 51 -94 100 -160 121 -46 14 -218 29 -228 20z"/>
<path d="M6454 4039 c-94 -17 -162 -60 -205 -127 -39 -62 -37 -83 14 -134 137
-139 446 -98 655 88 60 53 63 48 -43 103 -122 64 -298 93 -421 70z"/>
<path d="M444 3299 c-120 -16 -241 -73 -354 -168 -66 -54 -66 -51 15 -98 92
-54 170 -76 285 -79 116 -4 169 5 247 41 60 27 80 44 117 99 33 49 33 70 1
112 -59 78 -173 112 -311 93z"/>
<path d="M6438 3305 c-2 -2 -21 -6 -43 -9 -77 -13 -175 -92 -175 -142 0 -36
57 -111 104 -139 82 -48 155 -64 279 -61 116 3 164 14 262 63 28 13 61 33 74
44 l25 20 -35 32 c-125 117 -269 181 -427 191 -33 2 -62 3 -64 1z"/>
<path d="M747 2528 c-92 -16 -206 -79 -295 -162 -54 -51 -157 -205 -145 -217
17 -17 149 -38 223 -35 92 4 154 19 247 61 120 55 192 138 209 239 7 45 -4 60
-65 91 -55 27 -108 34 -174 23z"/>
<path d="M6085 2507 c-66 -31 -76 -45 -70 -94 17 -135 126 -226 335 -280 36
-10 223 -10 262 -1 60 14 72 16 81 17 30 3 -74 163 -150 230 -144 129 -340
184 -458 128z"/>
<path d="M1057 1905 c-92 -37 -148 -80 -224 -170 -41 -50 -113 -172 -113 -193
0 -6 -5 -23 -11 -39 -6 -15 -9 -28 -7 -29 2 0 -3 -8 -11 -17 -15 -19 -18 -18
90 -21 136 -5 298 60 410 163 89 81 129 176 112 263 -11 58 -151 82 -246 43z"/>
<path d="M5745 1923 c-58 -11 -105 -35 -107 -56 -4 -69 3 -123 24 -164 43 -85
173 -184 298 -226 62 -21 100 -27 207 -34 l92 -5 -19 65 c-29 104 -77 185
-155 262 -114 114 -245 175 -340 158z"/>
<path d="M1645 1321 c-38 -12 -66 -32 -115 -81 -108 -108 -168 -260 -175 -442
l-4 -87 52 15 c81 23 107 35 173 76 110 69 217 202 248 309 27 92 -1 218 -48
220 -11 1 -34 2 -51 3 -16 2 -52 -5 -80 -13z"/>
<path d="M5164 1332 c-33 -5 -59 -73 -58 -152 2 -163 158 -339 384 -431 83
-34 100 -36 101 -11 0 9 2 37 3 61 10 189 -120 434 -268 506 -49 23 -117 35
-162 27z"/>
<path d="M2324 999 c-129 -48 -222 -220 -230 -424 -2 -55 1 -118 5 -140 5 -22
12 -56 15 -76 l6 -37 63 32 c88 44 212 170 256 261 66 135 79 236 41 324 -12
28 -29 56 -38 63 -22 19 -62 18 -118 -3z"/>
<path d="M4490 990 c-98 -138 -55 -321 120 -514 45 -49 199 -152 210 -140 21
22 38 129 35 222 -8 241 -138 437 -302 456 -38 4 -45 2 -63 -24z"/>
<path d="M3073 789 c-67 -33 -123 -116 -140 -209 -11 -58 -7 -201 7 -259 16
-66 45 -137 85 -210 l30 -54 57 63 c104 116 161 263 161 422 0 75 -4 94 -30
151 -30 62 -83 117 -114 117 -8 0 -33 -9 -56 -21z"/>
<path d="M3747 766 c-57 -58 -80 -123 -79 -220 1 -39 3 -82 6 -95 28 -126 75
-221 161 -326 l54 -67 37 59 c21 32 49 89 63 128 22 61 26 87 26 195 0 135
-15 199 -62 272 -29 43 -87 85 -129 94 -27 5 -37 0 -77 -40z"/>
</g>
</svg>
