<?xml version="1.0" encoding="utf-8"?>
<!-- Generator: Adobe Illustrator 13.0.0, SVG Export Plug-In . SVG Version: 6.00 Build 14948)  -->
<!DOCTYPE svg PUBLIC "-//W3C//DTD SVG 1.1//EN" "http://www.w3.org/Graphics/SVG/1.1/DTD/svg11.dtd">
<svg version="1.1" id="White_outline" xmlns="http://www.w3.org/2000/svg" xmlns:xlink="http://www.w3.org/1999/xlink" x="0px"
	 y="0px" width="490px" height="565px" viewBox="0 0 490 565" enable-background="new 0 0 490 565" xml:space="preserve">
<g id="Flat">
</g>
<circle fill="#FFFFFF" stroke="#FFFFFF" stroke-width="5" cx="235.045" cy="495.062" r="60.524"/>
<path fill="none" stroke="#FFFFFF" stroke-width="20" stroke-linecap="round" d="M235.301,495.062V374.527 M19.57,63.765
	l161.799,323.472 M207.165,13.734l21.055,360.161 M271.145,379.946L380.593,35.202 M382.867,232.266
	c-17.853-10.046-36.833-18.325-56.702-24.601 M252.889,194.229c-5.82-0.335-11.684-0.505-17.587-0.505
	c-5.903,0-11.766,0.17-17.585,0.505 M161.6,202.803c-21.375,5.374-41.844,13.03-61.131,22.696 M271.145,379.946
	c-11.323-3.522-23.362-5.419-35.844-5.419c-19.387,0-37.705,4.577-53.933,12.709 M250.511,375.481l3.803-29.901 M254.647,164.149
	l-1.758,30.08 M117.38,27.452l44.22,175.351 M471.401,74.59l-88.535,157.676 M455.71,100.341
	c-19.741-11.046-40.395-20.655-61.821-28.684 M292.336,46.619c-18.681-2.352-37.716-3.564-57.035-3.564
	c-8.854,0-17.649,0.254-26.378,0.757 M99.091,63.94C76.24,71.153,54.173,80.132,33.052,90.717 M90.266,36.008l8.825,27.932
	 M292.336,46.619l3.802-29.893 M393.889,71.658l10.578-28.218"/>
<circle stroke="#000000" cx="235.045" cy="495.062" r="60.524"/>
<path fill="none" stroke="#000000" stroke-width="15" stroke-linecap="round" d="M235.301,495.062V374.527 M19.57,63.765
	l161.799,323.472 M207.165,13.734l21.055,360.161 M271.145,379.946L380.593,35.202 M382.867,232.266
	c-17.853-10.046-36.833-18.325-56.702-24.601 M252.889,194.229c-5.82-0.335-11.684-0.505-17.587-0.505
	c-5.903,0-11.766,0.17-17.585,0.505 M161.6,202.803c-21.375,5.374-41.844,13.03-61.131,22.696 M271.145,379.946
	c-11.323-3.522-23.362-5.419-35.844-5.419c-19.387,0-37.705,4.577-53.933,12.709 M250.511,375.481l3.803-29.901 M254.647,164.149
	l-1.758,30.08 M117.38,27.452l44.22,175.351 M471.401,74.59l-88.535,157.676 M455.71,100.341
	c-19.741-11.046-40.395-20.655-61.821-28.684 M292.336,46.619c-18.681-2.352-37.716-3.564-57.035-3.564
	c-8.854,0-17.649,0.254-26.378,0.757 M99.091,63.94C76.24,71.153,54.173,80.132,33.052,90.717 M90.266,36.008l8.825,27.932
	 M292.336,46.619l3.802-29.893 M393.889,71.658l10.578-28.218"/>
</svg>
